<?xml version="1.0" standalone="no"?>
<!DOCTYPE svg PUBLIC "-//W3C//DTD SVG 20010904//EN"
 "http://www.w3.org/TR/2001/REC-SVG-20010904/DTD/svg10.dtd">
<svg version="1.0" xmlns="http://www.w3.org/2000/svg"
 width="1080.000000pt" height="1080.000000pt" viewBox="0 0 1080.000000 1080.000000"
 preserveAspectRatio="xMidYMid meet">
<metadata>
Created by potrace 1.11, written by Peter Selinger 2001-2013
</metadata>
<g transform="translate(0.000000,1080.000000) scale(0.100000,-0.100000)"
fill="#000000" stroke="none">
<path d="M284 9008 c-33 -23 -57 -50 -76 -87 l-28 -53 0 -2987 c0 -2053 3
-2998 11 -3024 13 -48 59 -100 118 -135 l46 -27 1998 -3 1997 -2 0 -28 c0 -83
-69 -876 -81 -932 -26 -115 -79 -181 -281 -345 -156 -127 -178 -149 -178 -179
0 -27 42 -68 90 -87 29 -12 274 -14 1459 -17 943 -2 1443 1 1480 8 31 5 76 20
100 33 94 48 85 78 -62 195 -218 175 -304 267 -327 352 -18 66 -29 167 -50
435 -6 83 -15 197 -20 255 -5 58 -12 151 -16 208 l-7 102 1980 0 c1821 0 1983
1 2028 17 64 21 140 96 154 151 8 28 10 920 9 3038 l-3 2999 -33 47 c-18 26
-52 59 -76 73 l-43 25 -5070 0 -5071 0 -48 -32z m1149 -405 c-24 -2 -43 -7
-43 -11 0 -4 -26 -7 -58 -7 -31 1 -68 -2 -82 -6 -14 -4 -71 -15 -128 -25 -73
-12 -98 -20 -87 -27 10 -5 21 -5 28 0 7 5 34 10 61 11 27 1 52 5 55 9 3 5 35
9 71 11 35 2 69 6 73 9 11 7 75 13 142 13 39 1 46 3 30 10 -13 7 5 8 58 4 42
-4 83 -2 90 3 6 5 41 8 77 7 36 -1 166 -2 289 -3 182 -1 222 -3 208 -13 -11
-9 -14 -18 -8 -27 11 -18 31 -5 31 19 0 23 31 33 86 27 34 -3 32 -4 -13 -5
-49 -2 -66 -13 -43 -27 6 -3 10 -1 10 5 0 6 12 11 28 10 15 -1 45 -1 67 0 32
1 36 3 20 10 -14 6 -16 9 -4 9 8 1 24 -6 35 -14 10 -8 34 -15 53 -15 28 0 32
-2 21 -15 -10 -12 -6 -12 20 2 18 8 53 18 79 22 l46 6 -55 6 c-30 3 441 6
1048 7 862 1 1102 -1 1103 -11 0 -9 2 -9 6 1 2 6 18 12 34 12 24 0 29 -4 29
-25 0 -14 5 -25 10 -25 6 0 10 5 10 10 0 6 8 10 18 11 10 0 12 3 4 6 -23 9
-12 20 20 21 18 0 39 -5 47 -11 12 -9 13 -9 7 1 -11 18 98 16 117 -3 13 -12
16 -12 20 -1 4 9 14 12 26 9 12 -3 18 -10 15 -15 -4 -6 4 -8 17 -6 13 2 23 9
22 15 -2 7 10 9 35 6 80 -10 718 -84 732 -84 96 -5 476 -53 479 -61 2 -6 6 -7
10 0 4 6 65 3 171 -9 91 -10 173 -19 183 -19 9 0 17 -7 17 -16 0 -8 5 -12 10
-9 6 4 7 11 4 17 -4 6 1 8 12 4 11 -3 49 -8 84 -11 70 -6 364 -38 790 -85 337
-38 316 -36 505 -55 197 -20 187 -19 203 -29 7 -4 20 -5 28 -2 15 6 207 -12
234 -22 8 -3 26 -5 40 -5 37 1 275 -25 345 -38 232 -43 390 -135 423 -247 7
-22 12 -71 12 -110 l0 -71 -48 48 c-54 54 -109 82 -227 116 -104 30 -163 37
-200 25 -25 -8 -22 -9 20 -4 38 4 46 2 35 -6 -11 -9 -4 -10 30 -6 34 5 40 3
25 -4 -16 -8 -11 -9 18 -4 24 3 37 2 33 -4 -8 -13 37 -24 60 -15 13 5 15 3 9
-7 -6 -10 -3 -12 13 -8 14 4 20 2 15 -5 -4 -6 0 -8 10 -4 10 3 17 3 17 -2 0
-12 50 -32 63 -25 7 4 9 4 5 -1 -4 -4 14 -22 40 -40 49 -33 103 -118 86 -134
-5 -5 -127 -41 -272 -81 l-263 -73 -27 26 c-56 52 -222 127 -284 127 -15 0
-14 8 8 71 14 39 22 74 19 77 -3 3 -61 12 -128 19 -204 21 -221 24 -228 35 -4
6 -9 7 -13 0 -3 -5 -30 -7 -59 -5 -52 4 -56 3 -152 -62 -92 -61 -103 -66 -140
-61 -22 3 -84 9 -137 12 l-97 7 -7 46 c-3 25 -9 61 -13 79 l-6 33 -69 -55
c-39 -31 -72 -54 -74 -51 -3 2 -12 -4 -21 -15 -14 -17 -24 -18 -71 -12 -37 5
-54 12 -52 21 1 7 -2 19 -8 25 -5 7 -7 16 -3 19 3 4 -2 7 -11 7 -12 0 -16 5
-12 15 4 10 -1 15 -14 15 -11 0 -20 -7 -20 -16 0 -8 5 -12 10 -9 9 5 15 -15
11 -37 0 -5 6 -8 14 -8 8 0 15 -4 15 -10 0 -5 -16 -10 -36 -10 -25 0 -33 4
-28 13 6 10 4 10 -7 0 -19 -18 -53 -16 -76 5 -18 15 -63 119 -63 143 0 5 7 9
15 9 8 0 15 5 15 11 0 5 23 35 52 65 l52 55 80 -6 c45 -3 144 -12 221 -19 77
-8 147 -15 155 -15 8 0 51 -5 95 -10 44 -6 88 -8 99 -5 10 3 21 2 25 -4 3 -6
47 -13 96 -16 50 -3 109 -10 132 -15 23 -4 47 -4 55 0 7 4 15 4 18 -1 7 -12
59 -15 88 -6 12 4 22 4 21 -1 -4 -21 2 -38 9 -27 4 7 34 15 67 18 44 4 53 3
35 -4 -19 -7 -12 -9 33 -6 31 1 57 -2 57 -7 0 -5 28 -7 68 -4 47 4 60 3 42 -3
-18 -7 -4 -8 50 -5 53 3 68 1 50 -5 -17 -7 -1 -8 55 -5 52 2 70 1 50 -4 -29
-8 -29 -9 10 -9 45 0 114 15 79 17 -12 0 -90 8 -175 17 -85 8 -170 12 -189 9
-19 -4 -31 -3 -27 2 12 12 -133 30 -162 20 -13 -4 -27 -4 -30 1 -3 5 -89 17
-191 26 -102 10 -270 26 -375 36 -104 11 -287 28 -405 40 -456 44 -520 50
-675 66 -88 9 -196 20 -240 25 -44 5 -89 9 -100 9 -21 1 -798 78 -850 85 -16
2 -64 6 -105 9 -41 4 -121 11 -177 17 l-102 12 1 37 c1 51 -10 80 -27 74 -8
-3 -11 -12 -8 -19 2 -8 -1 -31 -7 -51 l-12 -36 -62 6 c-33 3 -94 9 -133 12
-40 4 -73 11 -73 16 0 6 -9 8 -20 5 -11 -3 -20 0 -21 6 0 8 -2 8 -6 0 -5 -13
-45 -18 -56 -7 -3 4 -40 8 -81 10 -41 2 -207 18 -368 34 -530 55 -703 71 -721
66 -9 -2 -15 0 -11 5 3 5 -13 9 -34 9 -22 0 -100 7 -174 16 -73 8 -155 13
-183 10 -31 -3 -41 -2 -25 2 19 6 7 10 -50 15 -41 4 -88 9 -105 11 -189 26
-315 36 -365 27 -53 -9 -52 -10 25 -6 60 3 71 2 45 -5 -26 -7 -15 -8 45 -5 58
3 72 1 50 -5 -22 -7 -12 -8 40 -5 49 3 62 1 45 -5 -18 -6 -6 -8 40 -5 48 4 59
2 40 -5 -18 -7 -8 -8 40 -5 46 4 59 2 45 -5 -16 -7 -10 -9 25 -8 25 1 52 -2
59 -6 7 -5 37 -5 68 -1 39 5 53 3 49 -4 -7 -11 24 -14 144 -16 25 0 53 -4 62
-9 10 -4 36 -6 57 -4 22 2 37 0 34 -5 -3 -4 17 -8 44 -8 76 0 153 -6 160 -13
4 -3 28 -6 54 -6 26 0 51 -5 54 -10 4 -6 15 -8 25 -5 10 3 67 1 126 -5 432
-41 529 -52 535 -61 11 -19 -2 -58 -18 -52 -12 5 -12 7 -2 14 8 4 11 11 7 14
-8 8 -38 -23 -38 -41 0 -20 30 -30 40 -14 4 7 9 -49 9 -124 1 -110 -1 -136
-11 -130 -7 5 -36 7 -63 6 -28 -2 -62 2 -75 7 -14 5 -19 10 -12 10 17 1 15 21
-3 21 -12 0 -14 18 -12 113 1 61 1 104 -1 95 -2 -10 -8 -18 -13 -18 -5 0 -9
-36 -9 -80 0 -57 -4 -80 -12 -80 -8 0 -9 -3 -3 -8 6 -4 11 -17 13 -30 3 -19 0
-22 -21 -18 -14 2 -50 7 -81 11 -50 7 -55 9 -44 23 11 13 11 14 -1 7 -11 -6
-13 2 -9 49 3 31 1 59 -4 62 -6 4 -14 -98 -9 -128 0 -5 -13 -8 -30 -8 -21 0
-28 4 -23 13 5 8 4 9 -4 2 -8 -7 -48 -8 -119 -3 -136 10 -156 15 -149 33 3 8
1 15 -3 15 -5 0 -12 -7 -15 -16 -5 -14 -15 -15 -64 -9 -31 5 -69 8 -84 8 -26
0 -28 3 -28 38 0 22 -5 39 -11 39 -6 0 -8 -7 -5 -16 3 -8 4 -25 1 -37 -5 -20
-11 -22 -56 -18 l-50 3 1 72 c2 109 1 126 -10 126 -6 0 -10 -40 -10 -101 0
-88 -2 -100 -16 -95 -9 3 -22 6 -30 6 -10 0 -14 15 -16 53 l-1 52 -6 -50 c-7
-54 -1 -51 -86 -47 l-36 2 7 53 c7 58 7 60 5 170 -2 128 -19 87 -20 -49 0
-177 5 -168 -100 -160 -47 3 -130 11 -183 18 l-98 11 0 29 c0 36 -18 37 -22 1
-3 -25 -7 -28 -38 -26 -19 1 -64 3 -100 5 l-64 3 -1 73 c-1 39 -5 75 -8 79 -4
3 -7 -2 -7 -13 0 -16 -2 -17 -10 -4 -8 13 -10 12 -10 -2 0 -10 5 -18 10 -18
11 0 13 -52 4 -86 -5 -21 -11 -21 -357 -28 -194 -4 -368 -9 -387 -12 -165 -21
-294 -42 -465 -76 -156 -31 -145 -31 -390 -13 -95 7 -86 -4 31 -39 l76 -22
-58 -23 c-92 -34 -187 -96 -238 -152 -42 -47 -46 -56 -46 -103 0 -44 5 -58 41
-105 22 -29 38 -55 35 -58 -3 -3 -18 1 -34 9 -15 8 -40 14 -54 14 -15 -1 -26
3 -25 9 1 5 -8 10 -20 9 -12 0 -19 4 -16 9 4 6 -1 8 -11 4 -9 -4 -15 -3 -12 2
7 11 -40 32 -58 25 -8 -3 -17 -1 -21 5 -4 7 1 8 12 4 10 -3 15 -3 11 2 -4 4
-3 13 2 20 7 8 5 12 -5 12 -8 0 -15 -4 -15 -8 0 -4 -7 -10 -16 -13 -10 -4 -13
-2 -8 6 5 8 2 9 -10 5 -10 -4 -15 -3 -11 3 3 6 1 10 -4 10 -6 0 -11 7 -11 16
0 10 6 14 14 11 9 -4 17 2 21 14 9 29 -2 36 -20 13 -13 -17 -14 19 -15 308 l0
326 32 11 c17 6 29 14 25 17 -3 3 -14 1 -25 -5 -12 -6 -23 -11 -26 -11 -3 0
-6 43 -6 95 l0 95 428 -2 c235 -1 408 -3 385 -5z m1080 -10 c-13 -2 -35 -2
-50 0 -16 2 -5 4 22 4 28 0 40 -2 28 -4z m854 -89 c-3 -3 -12 -4 -19 -1 -8 3
-5 6 6 6 11 1 17 -2 13 -5z m1383 -149 c25 -3 54 -6 65 -6 34 -1 227 -19 271
-24 37 -5 41 -8 36 -30 -7 -41 6 -75 29 -75 18 0 21 5 17 30 -3 17 -1 30 4 30
5 0 8 6 6 14 -2 8 -1 16 2 17 3 1 74 -3 158 -10 144 -13 152 -15 153 -35 1
-17 2 -18 6 -3 3 13 13 17 39 15 19 -1 34 -7 34 -13 0 -6 3 -6 8 1 5 8 41 8
132 -2 69 -7 222 -23 340 -35 118 -12 223 -22 233 -21 9 0 16 -2 13 -6 -2 -4
39 -8 92 -9 53 -2 98 -6 101 -10 3 -5 29 -8 56 -9 28 0 72 -1 98 -2 l49 -2
-33 -41 c-48 -61 -81 -111 -75 -116 7 -7 420 -53 504 -56 25 -1 10 -26 -45
-77 l-56 -52 -91 6 c-50 3 -118 8 -151 11 -284 25 -422 37 -495 41 -73 3 -88
7 -103 27 -10 12 -47 54 -82 93 l-63 70 -124 13 c-67 7 -154 15 -193 17 -38 3
-103 10 -143 15 -40 5 -93 9 -118 9 -38 0 -44 -3 -44 -21 0 -12 -5 -50 -11
-84 l-12 -62 -51 4 c-28 2 -91 8 -141 13 -49 5 -150 15 -222 21 l-133 13 0 37
c0 21 4 39 9 41 11 4 1 108 -10 108 -5 0 -9 -43 -9 -96 0 -95 0 -96 -22 -90
-13 3 -39 6 -59 6 -27 0 -39 5 -47 23 l-11 22 0 -24 c-1 -21 -4 -23 -32 -17
-17 3 -40 6 -50 6 -18 0 -19 11 -19 173 l0 173 73 -7 c39 -5 92 -11 117 -14z
m-4015 -703 c-3 -3 -11 0 -18 7 -9 10 -8 11 6 5 10 -3 15 -9 12 -12z m3872
-69 c-2 -16 -4 -3 -4 27 0 30 2 43 4 28 2 -16 2 -40 0 -55z m52 8 c1 -19 -2
-32 -5 -29 -3 3 -6 20 -6 37 -1 17 -4 28 -9 26 -4 -3 -5 5 -1 17 5 21 6 21 13
2 4 -10 8 -34 8 -53z m58 17 c-3 -7 -5 -2 -5 12 0 14 2 19 5 13 2 -7 2 -19 0
-25z m-2658 -189 c127 -32 132 -34 90 -39 -65 -8 -137 8 -196 42 -49 27 -70
46 -40 36 6 -3 73 -20 146 -39z m26 -69 c3 -6 -1 -7 -9 -4 -18 7 -21 14 -7 14
6 0 13 -4 16 -10z m268 -15 c12 -8 17 -15 11 -15 -6 0 -14 3 -18 7 -9 10 -96
14 -96 4 0 -4 -7 -16 -15 -27 -14 -18 -14 -17 -10 16 2 19 4 35 4 35 45 2 107
-8 124 -20z m57 -101 c0 -8 5 -12 11 -9 6 4 8 13 6 19 -3 7 1 13 9 13 7 0 11
-4 8 -9 -3 -4 4 -8 15 -8 20 0 71 -43 71 -60 0 -9 -28 -40 -36 -40 -3 0 -2 5
2 11 13 21 -18 27 -37 8 -18 -18 -22 -18 -49 -4 -36 19 -39 29 -6 23 18 -4 26
0 30 14 4 17 1 19 -20 14 -21 -6 -24 -3 -24 24 0 18 4 29 10 25 6 -3 10 -13
10 -21z m7775 -715 c-22 -4 -92 -8 -155 -8 -133 -1 -409 -15 -697 -36 -111 -8
-224 -14 -250 -14 -66 2 188 24 497 43 381 24 683 32 605 15z m-1177 -66 c-10
-2 -28 -2 -40 0 -13 2 -5 4 17 4 22 1 32 -1 23 -4z m-80 -10 c-10 -2 -28 -2
-40 0 -13 2 -5 4 17 4 22 1 32 -1 23 -4z m-80 -10 c-10 -2 -26 -2 -35 0 -10 3
-2 5 17 5 19 0 27 -2 18 -5z m-80 -10 c-10 -2 -26 -2 -35 0 -10 3 -2 5 17 5
19 0 27 -2 18 -5z m-70 -10 c-10 -2 -26 -2 -35 0 -10 3 -2 5 17 5 19 0 27 -2
18 -5z m-80 -10 c-10 -2 -28 -2 -40 0 -13 2 -5 4 17 4 22 1 32 -1 23 -4z m-90
-10 c-10 -2 -26 -2 -35 0 -10 3 -2 5 17 5 19 0 27 -2 18 -5z m-80 -10 c-10 -2
-28 -2 -40 0 -13 2 -5 4 17 4 22 1 32 -1 23 -4z m-90 -10 c-10 -2 -26 -2 -35
0 -10 3 -2 5 17 5 19 0 27 -2 18 -5z m-95 -10 c-13 -2 -33 -2 -45 0 -13 2 -3
4 22 4 25 0 35 -2 23 -4z m-3408 -81 c-3 -3 -11 0 -18 7 -9 10 -8 11 6 5 10
-3 15 -9 12 -12z m5137 -13 c57 -12 171 -63 189 -85 14 -17 6 -29 -64 -103
l-58 -60 -46 30 c-61 38 -102 49 -184 49 -159 0 -278 -123 -279 -291 0 -120
54 -215 154 -267 44 -23 62 -26 141 -26 70 0 101 5 138 22 l48 21 -3 73 -3 73
-82 3 -83 3 0 89 0 90 180 0 180 0 0 -234 c0 -175 -3 -236 -12 -243 -27 -20
-124 -54 -200 -69 -56 -11 -113 -15 -191 -12 -164 6 -254 44 -354 148 -165
170 -159 495 12 666 94 94 197 133 357 133 59 1 131 -4 160 -10z m-7066 -9
c182 -23 256 -86 274 -239 16 -122 -41 -231 -139 -268 -25 -9 -47 -17 -49 -18
-2 -2 24 -47 156 -267 l71 -118 -119 0 -118 0 -63 118 c-34 64 -77 147 -96
185 -34 70 -39 73 -102 61 l-31 -6 0 -179 0 -179 -100 0 -99 0 -3 103 c-2 56
-2 260 0 454 l2 352 108 3 c59 2 132 4 163 6 31 2 96 -2 145 -8z m987 0 l47 0
0 -85 0 -85 -130 0 -130 0 0 -370 0 -370 -100 0 -100 0 -1 218 c-1 119 -1 286
1 370 l2 152 -131 0 -131 0 0 84 0 85 48 3 c26 2 166 2 312 0 146 -1 286 -2
313 -2z m335 1 c9 -1 12 -99 12 -456 l0 -455 -100 0 -100 0 0 459 0 459 88 -2
c48 -2 93 -4 100 -5z m-3416 -187 l3 -187 174 187 173 186 131 0 131 0 -94
-97 c-52 -54 -143 -148 -203 -210 l-109 -112 212 -236 c117 -130 215 -234 217
-231 3 3 90 202 193 443 l188 438 88 0 88 0 49 -115 c27 -63 105 -242 173
-398 107 -242 164 -379 164 -390 0 -1 -50 -1 -111 0 l-111 3 -38 95 -38 95
-178 0 -179 0 -39 -97 -39 -98 -237 0 -238 0 -184 215 -183 215 -3 -215 -2
-215 -100 0 -100 0 0 455 0 455 100 0 100 0 2 -186z m3899 164 c7 -13 40 -68
74 -123 34 -55 116 -188 181 -295 l119 -195 3 318 2 317 100 0 100 0 0 -455 0
-455 -132 1 -133 0 -81 132 c-45 73 -118 192 -163 265 -45 73 -93 154 -107
180 -51 91 -51 90 -51 -110 0 -101 -1 -247 -2 -325 l-1 -143 -100 0 -101 0 1
173 c1 94 4 299 7 455 l6 282 133 0 c128 0 134 -1 145 -22z m1350 0 c1 -13 2
-176 3 -363 l1 -340 105 -1 c58 -1 142 -2 188 -3 l82 -1 0 -90 0 -90 -287 0
-288 0 2 67 c1 38 2 242 2 456 l1 387 95 0 c91 0 95 -1 96 -22z m1119 -68 l0
-90 -210 0 -210 0 0 -88 0 -88 143 2 c78 1 166 0 195 -3 l52 -5 0 -89 0 -89
-195 0 -195 0 0 -89 c0 -82 2 -90 20 -96 12 -4 85 -5 163 -4 78 1 168 2 200 1
l57 -2 0 -90 0 -90 -320 0 -320 0 0 455 0 455 310 0 310 0 0 -90z m380 -185
c0 -163 4 -295 11 -326 37 -170 263 -201 338 -47 20 42 21 59 21 346 l0 302
100 0 101 0 -3 -337 -3 -338 -26 -55 c-36 -73 -90 -127 -169 -164 -61 -29 -72
-31 -185 -31 -117 0 -122 1 -188 34 -115 58 -169 140 -186 283 -5 45 -10 201
-9 346 l0 262 99 0 99 0 0 -275z m1224 -35 c104 -171 190 -309 192 -308 2 3
13 448 14 556 l0 62 95 0 95 0 1 -272 c0 -150 1 -355 2 -455 l2 -183 -131 0
-131 0 -110 178 c-60 97 -149 243 -199 324 l-89 147 -3 -313 -2 -314 -32 -11
c-17 -6 -62 -11 -99 -11 l-69 0 0 455 0 455 138 0 137 -1 189 -309z m-5471
-397 c-7 -2 -21 -2 -30 0 -10 3 -4 5 12 5 17 0 24 -2 18 -5z m390 -223 c22 0
38 -2 35 -5 -5 -6 -181 -36 -184 -32 -1 1 2 13 7 26 9 22 13 23 56 17 25 -3
64 -6 86 -6z m542 -518 c36 -7 41 -11 57 -57 10 -28 18 -56 18 -62 0 -13 -58
-48 -66 -40 -2 2 -6 25 -8 50 -4 54 -14 69 -60 91 -96 46 -234 -12 -218 -91 2
-7 -2 -13 -8 -13 -6 0 -10 -12 -8 -27 5 -42 39 -55 133 -50 77 4 79 4 41 -9
-107 -38 -260 -58 -436 -58 -156 -1 -179 1 -215 19 -94 47 -33 112 165 176 47
15 85 27 86 26 0 -1 -2 -36 -6 -77 -8 -87 0 -100 63 -100 64 0 81 16 64 60 -8
20 -26 134 -22 138 2 2 52 10 112 17 121 14 248 17 308 7z m-429 -69 c9 -46
-5 -68 -42 -68 -27 0 -29 3 -32 44 -4 47 7 61 45 61 18 0 24 -8 29 -37z m2871
-449 c-3 -3 -12 -4 -19 -1 -8 3 -5 6 6 6 11 1 17 -2 13 -5z m-70 -20 c-3 -3
-12 -4 -19 -1 -8 3 -5 6 6 6 11 1 17 -2 13 -5z m-57 -3114 c-32 -10 -2305 -10
-2345 0 -16 4 510 8 1170 8 660 0 1189 -4 1175 -8z"/>
<path d="M5071 8549 c-13 -11 -22 -22 -19 -24 2 -3 15 6 28 20 28 30 24 32 -9
4z"/>
<path d="M4659 8516 c3 -26 6 -33 9 -19 3 19 7 21 22 13 13 -7 21 -7 25 0 6
10 2 12 -24 14 -8 1 -16 7 -19 15 -3 9 0 11 9 6 8 -5 10 -4 6 0 -21 23 -32 11
-28 -29z"/>
<path d="M4734 8526 c2 -14 10 -31 18 -40 14 -14 16 -13 20 7 6 35 -2 57 -22
57 -13 0 -18 -6 -16 -24z"/>
<path d="M4825 8539 c-4 -6 -5 -12 -2 -15 2 -3 7 2 10 11 7 17 1 20 -8 4z"/>
<path d="M2054 8520 c0 -11 3 -20 7 -20 4 0 9 9 12 20 3 12 0 20 -7 20 -6 0
-12 -9 -12 -20z"/>
<path d="M2150 8521 c0 -11 -2 -26 -5 -34 -4 -8 0 -14 9 -14 18 0 29 27 20 51
-8 22 -24 20 -24 -3z"/>
<path d="M950 8520 c-21 -7 -18 -8 18 -9 26 -1 41 3 37 9 -7 11 -19 11 -55 0z"/>
<path d="M2480 8513 c0 -16 -4 -21 -15 -17 -8 4 -15 2 -15 -3 0 -14 38 -13 43
1 3 7 1 19 -4 27 -7 11 -9 9 -9 -8z"/>
<path d="M5081 8523 c-1 -7 -9 -13 -18 -13 -15 0 -16 -2 -3 -10 18 -11 35 2
27 22 -4 9 -6 10 -6 1z"/>
<path d="M887 8503 c-3 -5 5 -8 18 -8 13 0 21 3 18 8 -2 4 -10 7 -18 7 -8 0
-16 -3 -18 -7z"/>
<path d="M2095 8500 c28 -12 37 -12 30 0 -3 6 -16 10 -28 9 -21 0 -21 -1 -2
-9z"/>
<path d="M830 8487 c-14 -8 -32 -12 -40 -9 -12 3 -12 2 -1 -6 11 -8 58 6 80
25 11 8 -17 1 -39 -10z"/>
<path d="M4915 8480 c3 -5 8 -10 11 -10 2 0 4 5 4 10 0 6 -5 10 -11 10 -5 0
-7 -4 -4 -10z"/>
<path d="M2110 8453 c0 -30 9 -27 15 6 2 11 0 21 -6 21 -5 0 -9 -12 -9 -27z"/>
<path d="M720 8456 c0 -2 7 -6 15 -10 8 -3 15 -1 15 4 0 6 -7 10 -15 10 -8 0
-15 -2 -15 -4z"/>
<path d="M695 8440 c-3 -5 -1 -10 4 -10 6 0 11 5 11 10 0 6 -2 10 -4 10 -3 0
-8 -4 -11 -10z"/>
<path d="M2539 8438 c-1 -2 -2 -19 -3 -38 -2 -19 -6 -46 -10 -59 -5 -15 -5
-21 2 -17 7 4 7 -5 0 -26 -6 -22 -6 -42 1 -60 13 -34 29 -36 41 -4 10 28 9
176 -2 176 -5 0 -8 7 -8 15 0 12 -17 22 -21 13z"/>
<path d="M3842 8418 c3 -7 15 -14 29 -16 23 -2 23 -2 5 13 -24 18 -39 20 -34
3z"/>
<path d="M1827 8413 c-4 -3 -7 -11 -7 -17 0 -6 5 -5 12 2 6 6 9 14 7 17 -3 3
-9 2 -12 -2z"/>
<path d="M2294 8386 c-8 -9 -7 -15 2 -23 9 -9 13 -9 17 1 8 20 -6 36 -19 22z"/>
<path d="M4890 8390 c0 -5 5 -10 10 -10 6 0 10 5 10 10 0 6 -4 10 -10 10 -5 0
-10 -4 -10 -10z"/>
<path d="M2204 8349 c0 -24 9 -24 27 -1 7 9 9 14 5 10 -5 -4 -14 -4 -20 2 -8
6 -12 3 -12 -11z"/>
<path d="M6560 8329 c0 -5 4 -8 9 -4 5 3 17 -3 27 -12 17 -17 18 -17 11 0 -4
10 -7 21 -7 23 0 2 -9 4 -20 4 -11 0 -20 -5 -20 -11z"/>
<path d="M1903 8308 c1 -10 6 -18 12 -18 5 0 3 -5 -5 -11 -13 -9 -13 -10 0 -6
18 4 21 54 4 54 -7 0 -12 -9 -11 -19z"/>
<path d="M6620 8319 c0 -5 5 -7 10 -4 6 3 10 8 10 11 0 2 -4 4 -10 4 -5 0 -10
-5 -10 -11z"/>
<path d="M4495 8251 c-8 -27 -2 -36 13 -18 6 7 7 18 3 26 -7 10 -10 8 -16 -8z"/>
<path d="M6501 8254 c0 -11 3 -14 6 -6 3 7 2 16 -1 19 -3 4 -6 -2 -5 -13z"/>
<path d="M2888 8253 c7 -3 16 -2 19 1 4 3 -2 6 -13 5 -11 0 -14 -3 -6 -6z"/>
<path d="M4255 8229 c-10 -30 -2 -32 12 -3 6 13 7 24 3 24 -5 0 -12 -9 -15
-21z"/>
<path d="M4425 8230 c-3 -5 -1 -10 4 -10 6 0 11 5 11 10 0 6 -2 10 -4 10 -3 0
-8 -4 -11 -10z"/>
<path d="M8251 8224 c0 -11 3 -14 6 -6 3 7 2 16 -1 19 -3 4 -6 -2 -5 -13z"/>
<path d="M7800 8210 c0 -11 2 -20 4 -20 2 0 6 9 9 20 3 11 1 20 -4 20 -5 0 -9
-9 -9 -20z"/>
<path d="M7850 8212 c0 -12 3 -12 15 -2 8 7 15 13 15 15 0 1 -7 2 -15 2 -8 0
-15 -7 -15 -15z"/>
<path d="M8471 8209 c-7 -12 -10 -23 -8 -26 3 -3 11 5 17 17 15 28 8 35 -9 9z"/>
<path d="M4512 8200 c0 -14 2 -19 5 -12 2 6 2 18 0 25 -3 6 -5 1 -5 -13z"/>
<path d="M8495 8190 c-3 -5 -1 -10 4 -10 6 0 11 5 11 10 0 6 -2 10 -4 10 -3 0
-8 -4 -11 -10z"/>
<path d="M3820 8186 c0 -2 7 -9 15 -16 12 -10 15 -10 15 4 0 9 -7 16 -15 16
-8 0 -15 -2 -15 -4z"/>
<path d="M7860 8180 c0 -5 5 -10 10 -10 6 0 10 5 10 10 0 6 -4 10 -10 10 -5 0
-10 -4 -10 -10z"/>
<path d="M8350 8171 c0 -6 5 -13 10 -16 6 -3 10 1 10 9 0 9 -4 16 -10 16 -5 0
-10 -4 -10 -9z"/>
<path d="M8331 8157 c0 -10 -5 -15 -11 -12 -6 3 -7 -1 -4 -10 9 -22 27 -3 21
21 -4 18 -5 18 -6 1z"/>
<path d="M8470 8151 c0 -17 18 -21 24 -6 3 9 0 15 -9 15 -8 0 -15 -4 -15 -9z"/>
<path d="M3725 8140 c-3 -5 -1 -10 4 -10 6 0 11 5 11 10 0 6 -2 10 -4 10 -3 0
-8 -4 -11 -10z"/>
<path d="M7855 8140 c-3 -5 -1 -10 4 -10 6 0 11 5 11 10 0 6 -2 10 -4 10 -3 0
-8 -4 -11 -10z"/>
<path d="M8640 8131 c0 -25 6 -27 13 -6 4 8 2 17 -3 20 -6 4 -10 -3 -10 -14z"/>
<path d="M8475 8110 c3 -5 1 -10 -6 -10 -10 0 -10 -3 -1 -12 19 -19 14 -28
-15 -28 -26 0 -26 0 -7 -21 16 -17 20 -18 22 -6 2 9 9 15 15 13 7 -1 9 -1 5 1
-5 3 -3 13 2 23 11 20 4 50 -12 50 -5 0 -6 -4 -3 -10z"/>
<path d="M8635 8090 c-3 -5 -1 -10 4 -10 6 0 11 5 11 10 0 6 -2 10 -4 10 -3 0
-8 -4 -11 -10z"/>
<path d="M680 7774 c0 -8 5 -12 10 -9 6 3 10 10 10 16 0 5 -4 9 -10 9 -5 0
-10 -7 -10 -16z"/>
<path d="M806 7715 c-3 -8 -1 -15 4 -15 6 0 10 7 10 15 0 8 -2 15 -4 15 -2 0
-6 -7 -10 -15z"/>
<path d="M6325 8120 c10 -11 20 -18 23 -15 7 6 -18 35 -31 35 -5 0 -2 -9 8
-20z"/>
<path d="M2710 5990 l0 -100 105 0 c119 0 148 9 170 56 22 46 9 92 -35 122
-29 19 -46 22 -136 22 l-104 0 0 -100z"/>
<path d="M1878 5867 c-26 -67 -50 -130 -54 -139 -6 -17 3 -18 106 -18 103 0
112 1 106 18 -58 151 -102 262 -106 262 -3 0 -26 -55 -52 -123z"/>
</g>
</svg>
